<svg id="Layer_1" xmlns="http://www.w3.org/2000/svg" xmlns:xlink="http://www.w3.org/1999/xlink" viewBox="0 0 142 42.2" width="2500" height="743"><style>.st3{fill:#939598}.st9{fill:#bcbec0}</style><defs><path id="SVGID_1_" d="M35.3 0L24.7 29.1c-.3.8-1.1 1.3-1.9 1.3H34c.9 0 1.6-.5 1.9-1.3L46.4 0H35.3z"/></defs><clipPath id="SVGID_2_"><use xlink:href="#SVGID_1_" overflow="visible"/></clipPath><g clip-path="url(#SVGID_2_)"><linearGradient id="SVGID_3_" gradientUnits="userSpaceOnUse" x1="-1141.503" y1="377.56" x2="-1141.163" y2="377.56" gradientTransform="matrix(32.28 -88.69 88.69 0 3390.733 -101208.89)"><stop offset="0" stop-color="#a7a9ac"/><stop offset=".19" stop-color="#dedfe0"/><stop offset=".23" stop-color="#dadbdc"/><stop offset=".26" stop-color="#cfd0d1"/><stop offset=".3" stop-color="#bcbdbf"/><stop offset=".33" stop-color="#a1a3a5"/><stop offset=".36" stop-color="#808285"/><stop offset=".37" stop-color="#8c8e90"/><stop offset=".41" stop-color="#b1b2b4"/><stop offset=".45" stop-color="#cecfd0"/><stop offset=".49" stop-color="#e2e4e4"/><stop offset=".53" stop-color="#eff0f0"/><stop offset=".57" stop-color="#f3f4f4"/><stop offset=".79" stop-color="#f1f2f2"/><stop offset=".86" stop-color="#eaebec"/><stop offset=".92" stop-color="#dfe0e1"/><stop offset=".96" stop-color="#cecfd1"/><stop offset="1" stop-color="#babcbe"/></linearGradient><path d="M11.7 30.5L22.8 0h34.7L46.4 30.5z" fill="url(#SVGID_3_)"/></g><defs><path id="SVGID_4_" d="M-.1 0h142v42.2H-.1z"/></defs><clipPath id="SVGID_5_"><use xlink:href="#SVGID_4_" overflow="visible"/></clipPath><g clip-path="url(#SVGID_5_)"><path class="st3" d="M35.9 29.1L46.5 0h-.1L35.8 29c-.3.8-1 1.4-1.9 1.5.9 0 1.7-.6 2-1.4"/></g><defs><path id="SVGID_6_" d="M12.5 10.2c-.9 0-1.6.5-1.9 1.3L0 40.6h11.2l10.6-29.1c.3-.8 1.1-1.3 1.9-1.3H12.5z"/></defs><clipPath id="SVGID_7_"><use xlink:href="#SVGID_6_" overflow="visible"/></clipPath><g clip-path="url(#SVGID_7_)"><linearGradient id="SVGID_8_" gradientUnits="userSpaceOnUse" x1="-1129.086" y1="352.596" x2="-1128.736" y2="352.596" gradientTransform="matrix(-32.28 88.68 -88.68 0 -5161.387 100137.75)"><stop offset="0" stop-color="#babcbe"/><stop offset=".03" stop-color="#cdcfd0"/><stop offset=".07" stop-color="#e2e3e4"/><stop offset=".1" stop-color="#eff0f0"/><stop offset=".14" stop-color="#f3f4f4"/><stop offset=".17" stop-color="#eff0f0"/><stop offset=".2" stop-color="#e4e5e5"/><stop offset=".23" stop-color="#d1d2d3"/><stop offset=".26" stop-color="#b6b8b9"/><stop offset=".29" stop-color="#949699"/><stop offset=".3" stop-color="#808285"/><stop offset=".33" stop-color="#9c9ea0"/><stop offset=".37" stop-color="#b9babc"/><stop offset=".4" stop-color="#cdcfd0"/><stop offset=".44" stop-color="#dadbdc"/><stop offset=".47" stop-color="#dedfe0"/><stop offset=".62" stop-color="#cbccce"/><stop offset=".86" stop-color="#b1b2b5"/><stop offset="1" stop-color="#a7a9ac"/></linearGradient><path d="M34.8 10.2L23.7 40.6h-34.8L0 10.2z" fill="url(#SVGID_8_)"/></g><defs><path id="SVGID_9_" d="M21.8 11.5l-3.7 10.1 2.7 7.5c.3.8 1.1 1.3 1.9 1.3.9 0 1.6-.5 1.9-1.3L28.3 19l-2.8-7.5c-.3-1.1-1.4-1.6-2.5-1.3-.6.2-1 .7-1.2 1.3"/></defs><clipPath id="SVGID_10_"><use xlink:href="#SVGID_9_" overflow="visible"/></clipPath><g clip-path="url(#SVGID_10_)"><linearGradient id="SVGID_11_" gradientUnits="userSpaceOnUse" x1="-1125.859" y1="349.947" x2="-1125.509" y2="349.947" gradientTransform="matrix(0 59.09 -59.09 0 20701.6 66537.133)"><stop offset="0" stop-color="#009fc2"/><stop offset=".33" stop-color="#009fc2"/><stop offset=".45" stop-color="#22abc9"/><stop offset=".94" stop-color="#a7d8e5"/><stop offset="1" stop-color="#a7d8e5"/></linearGradient><path d="M18.1 10.2h10.2v20.3H18.1z" fill="url(#SVGID_11_)"/></g><defs><path id="SVGID_12_" d="M-.1 0h142v42.2H-.1z"/></defs><clipPath id="SVGID_13_"><use xlink:href="#SVGID_12_" overflow="visible"/></clipPath><g clip-path="url(#SVGID_13_)"><path class="st9" d="M10.5 11.5L-.1 40.6H0l10.6-29c.3-.8 1-1.4 1.9-1.4-.9 0-1.7.5-2 1.3"/><path class="st3" d="M21.7 11.5L11.1 40.6h.1l10.6-29c.3-.8 1-1.4 1.9-1.4-.9 0-1.7.5-2 1.3"/><path class="st9" d="M24.8 29.1L35.3 0h-.1L24.6 29c-.3.8-1 1.4-1.9 1.4 1 0 1.8-.5 2.1-1.3"/><path d="M105.1 30.9c-4.9 0-8-2.9-8-7.4 0-4.8 2.8-7.7 7.3-7.7h.4c.8 0 1.6 0 2.4.1v-5.8h3.2v20.2c-1.7.4-3.5.6-5.3.6m-.1-12.6c-3.1 0-4.6 1.7-4.6 5.1 0 3.1 1.8 5 4.8 5 .6 0 1.2 0 2.1-.1v-9.8c-.8-.1-1.5-.2-2.3-.2M61.2 30.5l-8.7-15.2v15.2h-3V11.3h4.2l8.7 15v-15h3.1v19.2zm27.6.3c-1.6 0-3.2-.2-4.8-.5h-.2v-2.7l.3.1c1.4.4 2.9.6 4.3.6 1.1 0 3.7-.2 3.7-1.8 0-1.4-1.8-1.7-3.2-2h-.1l-.8-.3c-2.1-.5-4.4-1.4-4.4-4.2s2.2-4.3 6-4.3c1.4 0 2.8.1 4.2.4l.5.1v2.6H94c-1.3-.3-2.7-.4-4-.5-1.5 0-3.3.3-3.3 1.6 0 1.1 1.5 1.4 3.2 1.8 2.4.5 5.3 1.2 5.3 4.4.1 3-2.3 4.7-6.4 4.7m30.7 0c-3.3 0-6.4-.6-6.4-4.8 0-4.6 4.8-4.6 7.6-4.6.3 0 1.6.1 2 .1 0-2.6 0-3.2-3.8-3.2-1.5.1-3.1.2-4.6.6h-.3v-2.5h.2c1.6-.3 3.3-.5 5-.5 3.6 0 6.7.4 6.7 4.9v9.8h-.2c-2.1 0-4.1.1-6.2.2m1.1-7.2c-2.7 0-4.4.4-4.4 2.4 0 2.3 2.2 2.5 4.2 2.5.8 0 2.1-.1 2.5-.1v-4.7l-2.3-.1m-46.1 7.2c-3.3 0-6.4-.6-6.4-4.8 0-4.6 4.8-4.6 7.6-4.6.3 0 1.6.1 2 .1 0-2.6 0-3.2-3.8-3.2-1.5.1-3.1.2-4.6.6H69v-2.5h.2c1.6-.3 3.3-.5 5-.5 3.6 0 6.7.4 6.7 4.9v9.8h-.2c-2 0-4.1.1-6.2.2m1.1-7.2c-2.7 0-4.4.4-4.4 2.4 0 2.3 2.2 2.5 4.2 2.5.8 0 2.1-.1 2.5-.1v-4.7l-2.3-.1M138.7 37v-6.3c-.8.1-1.6.2-2.4.2-1.3 0-2.6-.3-3.8-.7-2.4-1-3.9-3.6-3.9-6.9 0-1.7.4-4.7 3.1-6.3 1.6-.9 3.5-1.3 5.4-1.1.9 0 2 .1 3.1.1l1.8.1v19.5l-3.3 1.4zm-1.9-18.7c-3.3 0-4.9 1.7-4.9 4.9 0 4.2 2.5 5.1 4.5 5.1.8 0 1.6-.1 2.3-.2v-9.8h-1.9" fill="#009fc2"/></g></svg>